<svg xmlns="http://www.w3.org/2000/svg" viewBox="0 0 760 460" fill="none" stroke="rgba(255,255,255,0.35)" stroke-width="1.4" stroke-linecap="round" stroke-linejoin="round">
  <defs>
    <linearGradient id="studio-fill" x1="0" y1="0" x2="0" y2="1">
      <stop offset="0%" stop-color="#5eead4" stop-opacity="0.10"></stop>
      <stop offset="100%" stop-color="#5eead4" stop-opacity="0"></stop>
    </linearGradient>
  </defs>

  
  <g transform="translate(60 34)">
    <rect x="0" y="0" width="360" height="220" rx="10" fill="rgba(255,255,255,0.025)" stroke="rgba(255,255,255,0.16)"></rect>
    <circle cx="18" cy="18" r="3" fill="rgba(255,255,255,0.4)" stroke="none"></circle>
    <circle cx="30" cy="18" r="3" fill="rgba(255,255,255,0.25)" stroke="none"></circle>
    <circle cx="42" cy="18" r="3" fill="rgba(255,255,255,0.18)" stroke="none"></circle>
    <rect x="240" y="12" width="106" height="12" rx="6" stroke="rgba(255,255,255,0.18)"></rect>
    <line x1="22" y1="184" x2="346" y2="184" stroke="rgba(255,255,255,0.18)"></line>
    <rect x="36" y="144" width="20" height="40" rx="3" fill="rgba(255,255,255,0.18)" stroke="none"></rect>
    <rect x="70" y="92" width="20" height="92" rx="3" fill="rgba(255,255,255,0.18)" stroke="none"></rect>
    <rect x="104" y="120" width="20" height="64" rx="3" fill="rgba(255,255,255,0.18)" stroke="none"></rect>
    <rect x="138" y="64" width="20" height="120" rx="3" fill="rgba(255,255,255,0.18)" stroke="none"></rect>
    <rect x="172" y="98" width="20" height="86" rx="3" fill="rgba(255,255,255,0.18)" stroke="none"></rect>
    <rect x="206" y="44" width="20" height="140" rx="3" fill="rgba(255,255,255,0.18)" stroke="none"></rect>
    <rect x="240" y="76" width="20" height="108" rx="3" fill="rgba(255,255,255,0.18)" stroke="none"></rect>
    <rect x="274" y="22" width="20" height="162" rx="3" fill="#5eead4" fill-opacity="0.85" stroke="none"></rect>
    <rect x="308" y="52" width="20" height="132" rx="3" fill="rgba(255,255,255,0.18)" stroke="none"></rect>
  </g>

  
  <g transform="translate(300 150)">
    <rect x="0" y="0" width="320" height="190" rx="10" fill="rgba(15,31,53,0.92)" stroke="rgba(255,255,255,0.20)"></rect>
    <rect x="14" y="12" width="92" height="10" rx="5" fill="rgba(255,255,255,0.16)" stroke="none"></rect>
    <text x="14" y="58" font-family="Manrope, sans-serif" font-size="22" font-weight="700" fill="rgba(255,255,255,0.92)" stroke="none">74.2%</text>
    <rect x="14" y="68" width="58" height="6" rx="3" fill="#5eead4" fill-opacity="0.6" stroke="none"></rect>
    <path d="M14 150 L48 132 L82 138 L116 110 L150 122 L184 96 L218 104 L252 76 L290 84" stroke="#5eead4" stroke-opacity="0.9" stroke-width="1.6"></path>
    <path d="M14 150 L48 132 L82 138 L116 110 L150 122 L184 96 L218 104 L252 76 L290 84 L290 170 L14 170 Z" fill="url(#studio-fill)" stroke="none"></path>
    <circle cx="252" cy="76" r="4" fill="#5eead4" stroke="#0f1f35" stroke-width="1.5"></circle>
  </g>

  
  <g transform="translate(540 50)">
    <rect x="0" y="0" width="160" height="64" rx="10" fill="rgba(15,31,53,0.95)" stroke="rgba(255,255,255,0.22)"></rect>
    <circle cx="22" cy="32" r="11" stroke="#5eead4" stroke-opacity="0.8"></circle>
    <path d="M17 32 L21 36 L28 28" stroke="#5eead4" stroke-opacity="0.95"></path>
    <rect x="44" y="20" width="76" height="8" rx="4" fill="rgba(255,255,255,0.22)" stroke="none"></rect>
    <rect x="44" y="36" width="48" height="6" rx="3" fill="rgba(255,255,255,0.12)" stroke="none"></rect>
  </g>
</svg>