<svg xmlns="http://www.w3.org/2000/svg" viewBox="0 0 400 300" fill="none" stroke="rgba(255,255,255,0.45)" stroke-width="1.4" stroke-linecap="round" stroke-linejoin="round">
  
  <path d="M40 120 C 110 60, 180 200, 260 100 S 360 150, 380 80" stroke="rgba(255,255,255,0.22)" stroke-dasharray="2 6"></path>

  
  <circle cx="40" cy="120" r="14" stroke="rgba(255,255,255,0.5)"></circle>
  <circle cx="40" cy="120" r="4" fill="rgba(255,255,255,0.6)" stroke="none"></circle>

  
  <g transform="translate(120 100) rotate(45 12 12)">
    <rect x="0" y="0" width="24" height="24" rx="3" stroke="rgba(255,255,255,0.5)"></rect>
  </g>

  
  <g transform="translate(200 150)">
    <circle cx="0" cy="0" r="16" stroke="rgba(255,255,255,0.5)"></circle>
    <path d="M-10 0 A 10 10 0 0 1 10 0" stroke="rgba(255,255,255,0.5)"></path>
    <path d="M-5 0 A 5 5 0 0 1 5 0" stroke="#5eead4" stroke-opacity="0.85"></path>
  </g>

  
  <g transform="translate(280 90)">
    <path d="M0 16 L14 -8 L28 16 Z" stroke="rgba(255,255,255,0.5)"></path>
  </g>

  
  <g transform="translate(360 80)" stroke="#5eead4" stroke-opacity="0.95">
    <circle cx="0" cy="0" r="10" fill="rgba(94,234,212,0.10)"></circle>
    <path d="M-3 -3 L3 3 M3 -3 L-3 3" stroke-width="1.3"></path>
    <path d="M12 -10 L14 -14 M18 -8 L22 -8 M15 -2 L17 -4" stroke-width="1.2" stroke-opacity="0.7"></path>
  </g>
</svg>