<svg xmlns="http://www.w3.org/2000/svg" viewBox="0 0 400 300" fill="none" stroke="rgba(255,255,255,0.5)" stroke-width="1.4" stroke-linecap="round" stroke-linejoin="round">
  
  <rect x="80" y="40" width="60" height="60" rx="10" fill="rgba(255,255,255,0.03)" stroke="rgba(255,255,255,0.22)"></rect>
  <rect x="156" y="40" width="60" height="60" rx="10" fill="rgba(255,255,255,0.03)" stroke="rgba(255,255,255,0.22)"></rect>
  <rect x="232" y="40" width="60" height="60" rx="10" fill="rgba(255,255,255,0.03)" stroke="rgba(255,255,255,0.22)"></rect>
  <rect x="80" y="116" width="60" height="60" rx="10" fill="rgba(255,255,255,0.03)" stroke="rgba(255,255,255,0.22)"></rect>
  <rect x="156" y="116" width="60" height="60" rx="10" fill="rgba(255,255,255,0.03)" stroke="rgba(255,255,255,0.22)"></rect>
  <rect x="232" y="116" width="60" height="60" rx="10" fill="rgba(255,255,255,0.03)" stroke="rgba(255,255,255,0.22)"></rect>
  <rect x="80" y="192" width="60" height="60" rx="10" fill="rgba(255,255,255,0.03)" stroke="rgba(255,255,255,0.22)"></rect>
  <rect x="156" y="192" width="60" height="60" rx="10" fill="rgba(255,255,255,0.03)" stroke="rgba(255,255,255,0.22)"></rect>

  
  <g transform="translate(98 58)">
    <path d="M0 20 L16 4 L20 8 L4 24 Z"></path>
    <path d="M0 20 L4 24"></path>
  </g>
  
  <g transform="translate(170 58)">
    <path d="M8 4 L0 12 L8 20"></path>
    <path d="M20 4 L28 12 L20 20"></path>
  </g>
  
  <g transform="translate(252 50)">
    <path d="M16 0 L4 18 L14 18 L10 32 L24 12 L14 12 Z" fill="#5eead4" fill-opacity="0.85" stroke="none"></path>
  </g>
  
  <g transform="translate(96 134)">
    <circle cx="10" cy="10" r="9"></circle>
    <path d="M17 17 L24 24"></path>
  </g>
  
  <g transform="translate(172 134)" stroke="#5eead4" stroke-opacity="0.9">
    <rect x="0" y="0" width="10" height="10" rx="2"></rect>
    <rect x="14" y="0" width="10" height="10" rx="2"></rect>
    <rect x="0" y="14" width="10" height="10" rx="2"></rect>
    <rect x="14" y="14" width="10" height="10" rx="2"></rect>
  </g>
  
  <g transform="translate(248 134)">
    <circle cx="12" cy="12" r="6"></circle>
    <path d="M12 0 L12 4 M12 20 L12 24 M0 12 L4 12 M20 12 L24 12 M3 3 L6 6 M18 18 L21 21 M21 3 L18 6 M6 18 L3 21"></path>
  </g>
  
  <g transform="translate(94 210)">
    <path d="M0 12 C 6 4, 18 4, 24 12 C 18 20, 6 20, 0 12 Z"></path>
    <circle cx="12" cy="12" r="4"></circle>
  </g>
  
  <g transform="translate(170 210)">
    <path d="M0 4 L0 18 C 0 20, 2 22, 4 22 L 12 22 L 18 28 L 18 22 L 24 22 C 26 22, 28 20, 28 18 L 28 4 C 28 2, 26 0, 24 0 L 4 0 C 2 0, 0 2, 0 4 Z"></path>
  </g>

  
  <g transform="translate(232 192)">
    <rect x="0" y="0" width="60" height="60" rx="10" fill="#5eead4" fill-opacity="0.10" stroke="#5eead4" stroke-opacity="0.55"></rect>
    <path d="M30 18 L30 42 M18 30 L42 30" stroke="#5eead4" stroke-opacity="0.85"></path>
  </g>
</svg>