<svg xmlns="http://www.w3.org/2000/svg" viewBox="0 0 400 320" fill="none" stroke="rgba(255,255,255,0.35)" stroke-width="1.4" stroke-linecap="round" stroke-linejoin="round">
  
  <g transform="translate(200 30) rotate(8)">
    <rect x="0" y="0" width="150" height="220" rx="14" fill="rgba(15,31,53,0.85)" stroke="rgba(255,255,255,0.16)"></rect>
    <rect x="14" y="18" width="60" height="8" rx="4" fill="rgba(255,255,255,0.14)" stroke="none"></rect>
    <rect x="14" y="40" width="122" height="80" rx="6" stroke="rgba(255,255,255,0.14)"></rect>
    <rect x="14" y="132" width="80" height="6" rx="3" fill="rgba(255,255,255,0.18)" stroke="none"></rect>
    <rect x="14" y="146" width="100" height="6" rx="3" fill="rgba(255,255,255,0.10)" stroke="none"></rect>
    <rect x="14" y="160" width="60" height="6" rx="3" fill="rgba(255,255,255,0.10)" stroke="none"></rect>
  </g>

  
  <g transform="translate(110 50) rotate(-4)">
    <rect x="0" y="0" width="150" height="220" rx="14" fill="rgba(15,31,53,0.95)" stroke="rgba(255,255,255,0.22)"></rect>
    <rect x="14" y="14" width="70" height="8" rx="4" fill="rgba(255,255,255,0.20)" stroke="none"></rect>
    <path d="M14 84 L34 70 L52 78 L72 56 L94 64 L116 44 L136 50" stroke="#5eead4" stroke-opacity="0.85"></path>
    <circle cx="116" cy="44" r="3" fill="#5eead4" stroke="none"></circle>
    <line x1="14" y1="104" x2="136" y2="104" stroke="rgba(255,255,255,0.10)"></line>
    <rect x="14" y="118" width="40" height="6" rx="3" fill="rgba(255,255,255,0.22)" stroke="none"></rect>
    <rect x="80" y="118" width="56" height="6" rx="3" fill="rgba(255,255,255,0.10)" stroke="none"></rect>
    <rect x="14" y="138" width="32" height="6" rx="3" fill="rgba(255,255,255,0.22)" stroke="none"></rect>
    <rect x="80" y="138" width="56" height="6" rx="3" fill="rgba(255,255,255,0.10)" stroke="none"></rect>
    <rect x="14" y="158" width="48" height="6" rx="3" fill="rgba(255,255,255,0.22)" stroke="none"></rect>
    <rect x="80" y="158" width="56" height="6" rx="3" fill="rgba(255,255,255,0.10)" stroke="none"></rect>
  </g>

  
  <g transform="translate(30 70) rotate(-12)">
    <rect x="0" y="0" width="150" height="200" rx="14" fill="rgba(15,31,53,0.98)" stroke="#5eead4" stroke-opacity="0.55"></rect>
    <text x="22" y="92" font-family="Manrope, sans-serif" font-size="56" font-weight="800" fill="#5eead4" fill-opacity="0.95" stroke="none" letter-spacing="-2">50+</text>
    <rect x="22" y="110" width="96" height="6" rx="3" fill="rgba(255,255,255,0.30)" stroke="none"></rect>
    <rect x="22" y="126" width="64" height="6" rx="3" fill="rgba(255,255,255,0.15)" stroke="none"></rect>
  </g>
</svg>