<svg xmlns="http://www.w3.org/2000/svg" viewBox="0 0 760 300" fill="none" stroke="rgba(255,255,255,0.4)" stroke-width="1.4" stroke-linecap="round" stroke-linejoin="round">
  <defs>
    <linearGradient id="scale-area" x1="0" y1="0" x2="0" y2="1">
      <stop offset="0%" stop-color="#5eead4" stop-opacity="0.18"></stop>
      <stop offset="100%" stop-color="#5eead4" stop-opacity="0"></stop>
    </linearGradient>
  </defs>

  

  
  <g>
    <rect x="80" y="230" width="72" height="17" rx="3" fill="rgba(255,255,255,0.05)" stroke="rgba(255,255,255,0.30)"></rect>
    <rect x="80" y="210" width="72" height="17" rx="3" fill="rgba(255,255,255,0.05)" stroke="rgba(255,255,255,0.30)"></rect>
  </g>
  
  <g>
    <rect x="200" y="226.67" width="72" height="20.33" rx="3" fill="rgba(255,255,255,0.05)" stroke="rgba(255,255,255,0.30)"></rect>
    <rect x="200" y="203.33" width="72" height="20.33" rx="3" fill="rgba(255,255,255,0.05)" stroke="rgba(255,255,255,0.30)"></rect>
    <rect x="200" y="180" width="72" height="20.33" rx="3" fill="rgba(255,255,255,0.05)" stroke="rgba(255,255,255,0.30)"></rect>
  </g>
  
  <g>
    <rect x="320" y="230" width="72" height="17" rx="3" fill="rgba(255,255,255,0.05)" stroke="rgba(255,255,255,0.30)"></rect>
    <rect x="320" y="210" width="72" height="17" rx="3" fill="rgba(255,255,255,0.05)" stroke="rgba(255,255,255,0.30)"></rect>
    <rect x="320" y="190" width="72" height="17" rx="3" fill="rgba(255,255,255,0.05)" stroke="rgba(255,255,255,0.30)"></rect>
    <rect x="320" y="170" width="72" height="17" rx="3" fill="rgba(255,255,255,0.05)" stroke="rgba(255,255,255,0.30)"></rect>
    <rect x="320" y="150" width="72" height="17" rx="3" fill="rgba(255,255,255,0.05)" stroke="rgba(255,255,255,0.30)"></rect>
  </g>
  
  <g>
    <rect x="440" y="228.33" width="72" height="18.67" rx="3" fill="rgba(255,255,255,0.05)" stroke="rgba(255,255,255,0.30)"></rect>
    <rect x="440" y="206.67" width="72" height="18.67" rx="3" fill="rgba(255,255,255,0.05)" stroke="rgba(255,255,255,0.30)"></rect>
    <rect x="440" y="185" width="72" height="18.67" rx="3" fill="rgba(255,255,255,0.05)" stroke="rgba(255,255,255,0.30)"></rect>
    <rect x="440" y="163.33" width="72" height="18.67" rx="3" fill="rgba(255,255,255,0.05)" stroke="rgba(255,255,255,0.30)"></rect>
    <rect x="440" y="141.67" width="72" height="18.67" rx="3" fill="rgba(255,255,255,0.05)" stroke="rgba(255,255,255,0.30)"></rect>
    <rect x="440" y="120" width="72" height="18.67" rx="3" fill="rgba(255,255,255,0.05)" stroke="rgba(255,255,255,0.30)"></rect>
  </g>
  
  <g>
    <rect x="560" y="223.33" width="72" height="23.67" rx="3" fill="rgba(255,255,255,0.05)" stroke="rgba(255,255,255,0.30)"></rect>
    <rect x="560" y="196.67" width="72" height="23.67" rx="3" fill="rgba(255,255,255,0.05)" stroke="rgba(255,255,255,0.30)"></rect>
    <rect x="560" y="170" width="72" height="23.67" rx="3" fill="rgba(255,255,255,0.05)" stroke="rgba(255,255,255,0.30)"></rect>
    <rect x="560" y="143.33" width="72" height="23.67" rx="3" fill="rgba(255,255,255,0.05)" stroke="rgba(255,255,255,0.30)"></rect>
    <rect x="560" y="116.67" width="72" height="23.67" rx="3" fill="rgba(255,255,255,0.05)" stroke="rgba(255,255,255,0.30)"></rect>
    <rect x="560" y="90" width="72" height="23.67" rx="3" fill="rgba(255,255,255,0.05)" stroke="rgba(255,255,255,0.30)"></rect>
  </g>
  
  <g>
    <rect x="680" y="218.33" width="72" height="28.67" rx="3" fill="rgba(255,255,255,0.05)" stroke="rgba(255,255,255,0.30)"></rect>
    <rect x="680" y="186.67" width="72" height="28.67" rx="3" fill="rgba(255,255,255,0.05)" stroke="rgba(255,255,255,0.30)"></rect>
    <rect x="680" y="155" width="72" height="28.67" rx="3" fill="rgba(255,255,255,0.05)" stroke="rgba(255,255,255,0.30)"></rect>
    <rect x="680" y="123.33" width="72" height="28.67" rx="3" fill="rgba(255,255,255,0.05)" stroke="rgba(255,255,255,0.30)"></rect>
    <rect x="680" y="91.67" width="72" height="28.67" rx="3" fill="rgba(255,255,255,0.05)" stroke="rgba(255,255,255,0.30)"></rect>
    <rect x="680" y="60" width="72" height="28.67" rx="3" fill="#5eead4" fill-opacity="0.85" stroke="rgba(255,255,255,0.30)"></rect>
  </g>

  
  <line x1="40" y1="252" x2="740" y2="252" stroke="rgba(255,255,255,0.18)"></line>

  
  <path d="M40 230 L116 200 L236 170 L356 140 L476 105 L596 70 L716 40" stroke="#5eead4" stroke-opacity="0.9" stroke-width="1.8"></path>
  <path d="M40 230 L116 200 L236 170 L356 140 L476 105 L596 70 L716 40 L716 252 L40 252 Z" fill="url(#scale-area)" stroke="none" opacity="0.55"></path>

  
  <circle cx="716" cy="40" r="5" fill="#5eead4" stroke="#0a1525" stroke-width="1.6"></circle>
</svg>