<svg xmlns="http://www.w3.org/2000/svg" viewBox="0 0 400 300" fill="none" stroke="rgba(255,255,255,0.45)" stroke-width="1.4" stroke-linecap="round" stroke-linejoin="round">
  
  <g transform="translate(184 80)">
    <rect x="0" y="0" width="32" height="32" rx="6" fill="rgba(255,255,255,0.04)" stroke="rgba(255,255,255,0.22)" stroke-dasharray="2 4"></rect>
    <circle cx="16" cy="13" r="4" stroke="rgba(255,255,255,0.22)"></circle>
    <path d="M9 24 C 9 19, 23 19, 23 24" stroke="rgba(255,255,255,0.22)"></path>
    <path d="M-4 36 L36 -4" stroke="#5eead4" stroke-opacity="0.85" stroke-width="1.6"></path>
  </g>

  
  <path d="M118 168 L282 168" stroke="#5eead4" stroke-opacity="0.85" stroke-width="1.6" stroke-dasharray="2 5"></path>
  <path d="M118 168 L126 162 M118 168 L126 174" stroke="#5eead4" stroke-opacity="0.85" stroke-width="1.4"></path>
  <path d="M282 168 L274 162 M282 168 L274 174" stroke="#5eead4" stroke-opacity="0.85" stroke-width="1.4"></path>

  
  <g transform="translate(40 130)">
    <path d="M10 0 L70 0 C 76 0, 80 4, 80 10 L 80 50 C 80 56, 76 60, 70 60 L 28 60 L 16 72 L 16 60 L 10 60 C 4 60, 0 56, 0 50 L 0 10 C 0 4, 4 0, 10 0 Z" fill="rgba(255,255,255,0.04)" stroke="rgba(255,255,255,0.45)"></path>
    <circle cx="40" cy="22" r="7" stroke="rgba(255,255,255,0.45)"></circle>
    <path d="M28 44 C 28 36, 52 36, 52 44" stroke="rgba(255,255,255,0.45)"></path>
  </g>

  
  <g transform="translate(280 130)">
    <path d="M10 0 L70 0 C 76 0, 80 4, 80 10 L 80 50 C 80 56, 76 60, 70 60 L 64 60 L 64 72 L 52 60 L 10 60 C 4 60, 0 56, 0 50 L 0 10 C 0 4, 4 0, 10 0 Z" fill="rgba(94,234,212,0.10)" stroke="#5eead4" stroke-opacity="0.7"></path>
    <path d="M30 20 L20 30 L30 40" stroke="#5eead4" stroke-opacity="0.95" stroke-width="1.6"></path>
    <path d="M50 20 L60 30 L50 40" stroke="#5eead4" stroke-opacity="0.95" stroke-width="1.6"></path>
    <path d="M44 18 L36 42" stroke="#5eead4" stroke-opacity="0.6" stroke-width="1.4"></path>
  </g>

  
  <circle cx="116" cy="142" r="2.5" fill="#5eead4" fill-opacity="0.9" stroke="none"></circle>
  <circle cx="356" cy="142" r="2.5" fill="#5eead4" fill-opacity="0.9" stroke="none"></circle>
</svg>