<?xml version="1.0" encoding="UTF-8"?>
<svg id="Camada_1" data-name="Camada 1" xmlns="http://www.w3.org/2000/svg" viewBox="0 0 1080 1080">
  <defs>
    <style>
      .cls-1 {
        fill: #d7ac82;
      }

      .cls-2 {
        fill: #ffffff;
      }

      .cls-3 {
        fill: #fff;
      }
    </style>
  </defs>
  <g>
    <g>
      <polygon class="cls-1" points="333.7 568.41 333.7 519.49 301.39 519.49 301.39 598.43 312.14 609.17 312.14 530.23 322.96 530.23 322.96 568.41 333.7 568.41"/>
      <polygon class="cls-1" points="344.52 602.59 317.55 629.57 290.57 602.59 290.57 508.67 344.52 508.67 344.52 521.91 355.26 521.91 355.26 497.92 279.83 497.92 279.83 607.04 317.55 644.75 355.26 607.04 355.26 568.41 344.52 568.41 344.52 602.59"/>
      <rect class="cls-1" x="279.83" y="454.8" width="75.43" height="10.74"/>
      <rect class="cls-1" x="301.39" y="433.25" width="32.3" height="10.74"/>
      <polygon class="cls-1" points="258.28 476.36 258.28 508.67 269.03 508.67 269.03 487.1 366.07 487.1 366.07 508.67 376.81 508.67 376.81 476.36 258.28 476.36"/>
    </g>
    <g>
      <g>
        <path class="cls-2" d="M412.58,488.8c0-16.65,12.82-29.39,29.35-29.39,10.39,0,19.05,4.92,24.39,12.95l-6.85,4.79c-4.71-6.31-10.01-9.38-17.53-9.38-11.73,0-20.14,8.83-20.14,21.02s8.58,21.02,20.35,21.02c10.98,0,17.2-6.6,18.33-14.34h-19.68v-7.99h28.85c.13,1.14.17,2.23.17,3.32,0,14.84-10.18,27.37-27.67,27.37-16.57,0-29.56-12.7-29.56-29.39Z"/>
        <path class="cls-2" d="M472.3,517.35l23.59-57.1h9.59l23.59,57.1h-9.42l-4.54-11.9h-28.85l-4.54,11.9h-9.42ZM512.45,498.1l-11.77-27.96-11.77,27.96h23.55Z"/>
        <path class="cls-2" d="M536.86,517.35v-57.1h24.64c10.81,0,17.41,7.28,17.41,15.98,0,4.58-2.35,9.25-6.27,11.52,5.34,2.27,8.41,7.48,8.41,13.08,0,9.29-7.53,16.52-17.87,16.52h-26.32ZM561.5,484.56c5.26,0,8.49-3.83,8.49-8.11s-2.99-8.33-8.49-8.33h-15.77v16.44h15.77ZM545.73,509.45h17.45c5.59,0,9.12-4.08,9.12-8.79s-3.7-8.66-9.12-8.66h-17.45v17.45Z"/>
        <path class="cls-2" d="M615.44,460.27c11.77,0,19.43,6.64,19.43,17.32,0,7.82-4.5,13.62-11.56,16.1l13.83,23.63h-10.26l-12.91-22.41h-14.25v22.41h-8.83v-57.06h24.56ZM599.72,468.22v18.84h15.31c7.02,0,10.64-3.91,10.64-9.46s-3.62-9.38-10.64-9.38h-15.31Z"/>
        <path class="cls-2" d="M655.76,517.35h-8.83v-57.1h8.83v57.1Z"/>
        <path class="cls-2" d="M665.42,460.23h40.03v8.03h-31.2v15.73h26.78v8.03h-26.78v17.28h32.08v8.03h-40.91v-57.1Z"/>
        <path class="cls-2" d="M764.95,517.38l23.59-57.1h9.59l23.59,57.1h-9.42l-4.54-11.9h-28.85l-4.54,11.9h-9.42ZM805.11,498.12l-11.77-27.96-11.77,27.96h23.55Z"/>
        <polygon class="cls-2" points="757.5 509.3 724.99 509.3 724.99 460.23 716.12 460.23 716.12 517.33 754.23 517.33 757.5 509.53 757.5 509.3"/>
      </g>
      <g>
        <path class="cls-2" d="M498.61,566.94c0-17.11,12.66-29.48,29.48-29.48s29.52,12.36,29.52,29.48-12.57,29.31-29.52,29.31-29.48-12.07-29.48-29.31ZM528.08,587.88c12.24,0,20.27-8.45,20.27-21.02s-8.03-21.02-20.27-21.02-20.23,8.75-20.23,21.02,8.16,21.02,20.23,21.02Z"/>
        <path class="cls-2" d="M478.79,585.95c2.94,0,5.17,2.31,5.17,5.17s-2.23,5.13-5.17,5.13-5.13-2.27-5.13-5.13,2.19-5.17,5.13-5.17Z"/>
        <path class="cls-2" d="M441.93,537.46c10.39,0,19.59,5.09,25.1,13.92l-6.85,4.79c-4.58-6.9-10.72-10.34-18.25-10.34-11.73,0-20.1,8.83-20.1,21.02s8.54,21.02,20.31,21.02c7.57,0,14.04-3.53,18.5-10.09l6.6,4.58c-5.38,8.75-14.63,13.87-25.1,13.87-16.57,0-29.56-12.7-29.56-29.39s12.82-29.39,29.35-29.39Z"/>
        <path class="cls-2" d="M564.59,585.95c2.94,0,5.17,2.31,5.17,5.17s-2.23,5.13-5.17,5.13-5.13-2.27-5.13-5.13,2.19-5.17,5.13-5.17Z"/>
        <path class="cls-2" d="M595.73,595.41v-57.06h23.46c11.77,0,19.38,7.27,19.38,17.87s-7.61,17.91-19.38,17.91h-14.63v21.28h-8.83ZM604.55,566.06h14.25c6.94,0,10.55-4.37,10.55-9.84s-3.62-9.84-10.55-9.84h-14.25v19.68Z"/>
        <path class="cls-2" d="M635.08,595.41l23.59-57.1h9.59l23.59,57.1h-9.42l-4.54-11.9h-28.85l-4.54,11.9h-9.42ZM675.24,576.15l-11.77-27.96-11.77,27.96h23.55Z"/>
        <path class="cls-2" d="M710.47,595.41h-8.83v-57.1h8.83v57.1Z"/>
        <path class="cls-2" d="M720.35,538.3h9.21l18.04,47.68,18.04-47.68h9.21l-21.99,57.1h-10.51l-21.99-57.1Z"/>
        <path class="cls-2" d="M764.66,595.41l23.59-57.1h9.59l23.59,57.1h-9.42l-4.54-11.9h-28.85l-4.54,11.9h-9.42ZM804.81,576.15l-11.77-27.96-11.77,27.96h23.55Z"/>
      </g>
    </g>
  </g>
</svg>