<?xml version="1.0" encoding="UTF-8"?>
<svg id="Camada_1" data-name="Camada 1" xmlns="http://www.w3.org/2000/svg" viewBox="0 0 481.22 841.89">
  <defs>
    <style>
      .cls-1 {
        fill: #d19431;
      }

      .cls-2 {
        fill: #ffffff;
      }
    </style>
  </defs>
  <g>
    <polygon class="cls-1" points="480.88 732.82 480.88 732.82 480.88 0 0 0 0 732.82 480.14 732.82 480.88 732.82"/>
    <polygon class="cls-1" points="480.14 737.47 480.14 737.46 0 737.46 0 841.89 480.88 841.89 480.88 737.47 480.14 737.47"/>
  </g>
  <g>
    <path class="cls-2" d="M112.4,785.13c.78-1.46,1.87-2.59,3.26-3.4,1.39-.81,2.99-1.21,4.78-1.21,2.33,0,4.24.57,5.75,1.69,1.51,1.13,2.5,2.69,2.99,4.7h-3.38c-.32-1.15-.95-2.06-1.88-2.73-.93-.67-2.09-1-3.47-1-1.79,0-3.25.62-4.35,1.85-1.1,1.23-1.66,2.98-1.66,5.23s.55,4.04,1.66,5.28c1.1,1.24,2.56,1.86,4.35,1.86,1.38,0,2.53-.32,3.45-.97.92-.64,1.55-1.56,1.9-2.76h3.38c-.51,1.93-1.52,3.48-3.04,4.64-1.52,1.16-3.42,1.74-5.7,1.74-1.79,0-3.39-.4-4.78-1.21-1.39-.81-2.48-1.95-3.26-3.42-.78-1.47-1.17-3.2-1.17-5.18s.39-3.67,1.17-5.13Z"/>
    <path class="cls-2" d="M143.7,798.86c-1.44-.81-2.57-1.95-3.38-3.44-.82-1.48-1.23-3.2-1.23-5.16s.42-3.64,1.26-5.13c.84-1.48,1.99-2.62,3.43-3.42,1.45-.79,3.07-1.19,4.87-1.19s3.42.4,4.87,1.19c1.45.79,2.59,1.93,3.44,3.4.84,1.47,1.26,3.19,1.26,5.14s-.43,3.68-1.3,5.16c-.86,1.49-2.03,2.63-3.5,3.44-1.47.81-3.11,1.21-4.9,1.21s-3.38-.4-4.82-1.21ZM151.7,796.51c.99-.53,1.79-1.32,2.4-2.38.61-1.06.92-2.35.92-3.87s-.3-2.81-.9-3.87c-.6-1.06-1.38-1.85-2.35-2.37-.97-.52-2.01-.78-3.14-.78s-2.2.26-3.16.78c-.96.52-1.72,1.31-2.3,2.37-.58,1.06-.86,2.35-.86,3.87s.28,2.84.84,3.9c.56,1.06,1.32,1.85,2.26,2.36.94.52,1.98.78,3.11.78s2.19-.26,3.18-.79Z"/>
    <path class="cls-2" d="M184.09,782.58c1.43,1.39,2.14,3.4,2.14,6.03v11.15h-3.11v-10.7c0-1.89-.47-3.33-1.41-4.33-.94-1-2.23-1.5-3.87-1.5s-2.97.52-3.95,1.55c-.98,1.04-1.47,2.54-1.47,4.52v10.46h-3.14v-18.92h3.14v2.69c.62-.97,1.47-1.72,2.54-2.25,1.07-.53,2.25-.79,3.54-.79,2.3,0,4.17.7,5.59,2.09Z"/>
    <path class="cls-2" d="M201.08,799.32c-1.15-.5-2.06-1.19-2.73-2.07-.67-.89-1.04-1.9-1.1-3.06h3.25c.09.94.54,1.72,1.33,2.31.79.6,1.83.9,3.12.9,1.2,0,2.14-.26,2.83-.79.69-.53,1.04-1.2,1.04-2s-.37-1.44-1.1-1.85c-.74-.4-1.88-.8-3.42-1.19-1.41-.37-2.55-.74-3.44-1.12-.89-.38-1.65-.94-2.28-1.69-.63-.75-.95-1.73-.95-2.95,0-.97.29-1.85.86-2.66.58-.81,1.39-1.44,2.45-1.91,1.06-.47,2.27-.71,3.63-.71,2.1,0,3.79.53,5.08,1.59,1.29,1.06,1.98,2.51,2.07,4.35h-3.14c-.07-.99-.47-1.78-1.19-2.38-.73-.6-1.7-.9-2.92-.9-1.13,0-2.02.24-2.69.73-.67.48-1,1.12-1,1.9,0,.62.2,1.13.6,1.54.4.4.91.72,1.52.97.61.24,1.46.51,2.54.81,1.36.37,2.46.73,3.32,1.09.85.36,1.58.89,2.19,1.61.61.71.93,1.65.95,2.8,0,1.03-.29,1.97-.86,2.8-.58.83-1.39,1.48-2.44,1.95s-2.25.71-3.61.71c-1.45,0-2.75-.25-3.9-.74Z"/>
    <path class="cls-2" d="M239.99,780.83v18.92h-3.14v-2.8c-.6.97-1.43,1.72-2.5,2.26-1.07.54-2.25.81-3.54.81-1.47,0-2.8-.31-3.97-.92-1.18-.61-2.1-1.52-2.78-2.75-.68-1.22-1.02-2.7-1.02-4.45v-11.08h3.11v10.67c0,1.86.47,3.3,1.41,4.3.94,1,2.23,1.5,3.87,1.5s3-.52,3.97-1.55c.97-1.04,1.45-2.54,1.45-4.52v-10.39h3.14Z"/>
    <path class="cls-2" d="M255.36,774.2v25.55h-3.14v-25.55h3.14Z"/>
    <path class="cls-2" d="M271.45,783.42v11.15c0,.92.19,1.57.59,1.95.39.38,1.07.57,2.04.57h2.31v2.66h-2.83c-1.75,0-3.06-.4-3.93-1.21-.88-.81-1.31-2.13-1.31-3.97v-11.15h-2.45v-2.59h2.45v-4.77h3.14v4.77h4.94v2.59h-4.94Z"/>
    <path class="cls-2" d="M290.53,798.86c-1.44-.81-2.57-1.95-3.38-3.44-.82-1.48-1.23-3.2-1.23-5.16s.42-3.64,1.26-5.13c.84-1.48,1.99-2.62,3.43-3.42,1.45-.79,3.07-1.19,4.87-1.19s3.42.4,4.87,1.19c1.45.79,2.59,1.93,3.44,3.4.84,1.47,1.26,3.19,1.26,5.14s-.43,3.68-1.3,5.16c-.86,1.49-2.03,2.63-3.5,3.44-1.47.81-3.11,1.21-4.9,1.21s-3.38-.4-4.82-1.21ZM298.52,796.51c.99-.53,1.79-1.32,2.4-2.38.61-1.06.92-2.35.92-3.87s-.3-2.81-.9-3.87c-.6-1.06-1.38-1.85-2.35-2.37-.97-.52-2.01-.78-3.14-.78s-2.2.26-3.16.78c-.96.52-1.72,1.31-2.3,2.37s-.86,2.35-.86,3.87.28,2.84.84,3.9c.56,1.06,1.32,1.85,2.26,2.36.94.52,1.98.78,3.11.78s2.19-.26,3.18-.79Z"/>
    <path class="cls-2" d="M321.61,781.39c1.02-.6,2.27-.9,3.75-.9v3.25h-.83c-3.52,0-5.28,1.91-5.28,5.73v10.29h-3.14v-18.92h3.14v3.07c.55-1.08,1.34-1.92,2.36-2.52Z"/>
    <path class="cls-2" d="M335.99,777.14c-.41-.42-.62-.92-.62-1.52s.21-1.1.62-1.52c.42-.41.92-.62,1.52-.62s1.07.21,1.47.62c.4.42.6.92.6,1.52s-.2,1.1-.6,1.52c-.4.41-.89.62-1.47.62s-1.1-.21-1.52-.62ZM339.03,780.83v18.92h-3.14v-18.92h3.14Z"/>
    <path class="cls-2" d="M351.29,785.13c.78-1.46,1.86-2.59,3.23-3.4,1.37-.81,2.89-1.21,4.58-1.21s3.09.36,4.32,1.07c1.22.71,2.13,1.61,2.73,2.7v-3.45h3.18v18.92h-3.18v-3.52c-.62,1.1-1.55,2.02-2.78,2.75-1.23.72-2.67,1.09-4.3,1.09s-3.2-.41-4.56-1.24c-1.36-.83-2.43-1.99-3.21-3.49-.78-1.49-1.17-3.2-1.17-5.11s.39-3.63,1.17-5.09ZM365.27,786.53c-.58-1.06-1.35-1.87-2.33-2.44-.98-.56-2.06-.84-3.23-.84s-2.25.28-3.21.83c-.97.55-1.74,1.36-2.31,2.42s-.86,2.3-.86,3.73.29,2.71.86,3.78c.58,1.07,1.35,1.89,2.31,2.45.97.56,2.04.85,3.21.85s2.25-.28,3.23-.85c.98-.56,1.76-1.38,2.33-2.45s.86-2.32.86-3.75-.29-2.67-.86-3.73Z"/>
  </g>
  <g>
    <path class="cls-2" d="M347.36,362.46c-14.94-18.59-36.39-27.89-64.35-27.89l-8.67.15-10.67-.15v3.84h1.61c27.33,0,47.1,15.01,59.28,30.89,12.18,15.88,18.28,41.67,18.28,77.36s-5.67,59.99-17.01,77.13c-11.35,17.14-28.31,32.02-51,32.02-4.61,0-10.8.02-11.15,0v3.84h20.31c26.43,0,47.32-10.48,62.66-31.45,15.34-20.97,23.02-49.49,23.02-85.57s-7.43-61.59-22.3-80.18Z"/>
    <path class="cls-2" d="M369.66,676.08v3.11l-159.66.49v-3.11l7.46-2.41c2.7-.92,7.77-2.99,9.48-6.21,1.7-3.22,2.56-7.13,2.56-11.73v-185.33c0-4.6-.85-8.51-2.56-11.73-1.7-3.22-3.91-5.29-6.61-6.21l-7.46-2.41v-3.11h49.42v3.11l-8.31,2.76c-2.42.69-4.41,2.65-5.97,5.86-1.56,3.23-2.34,7.13-2.34,11.73v173.29c0,5.52,1.13,10.13,3.41,13.8,2.27,3.68,7.98,5.52,11.4,5.52l78.27-.49c1.7,0,8.42-1.28,10.55-4.19,1.88-2.57,2.57-4,3.5-11.05.56-4.23.29-10.09,3.26-13.97,1.46-1.91,2.85-3.21,5.97-3.06,1.93.09,6.42,1.97,7.64,8.09v37.26Z"/>
    <path class="cls-2" d="M211.9,555.82h-24.75v-217.41l20.36-.02v-3.82s-65.35,0-65.35,0v3.93l13.38-.08c6.22.6,10.43,4.09,12.44,7.09,2,3.01,3.01,6.65,3.01,10.93v181.36c0,4.29-.48,9.84-1.01,13.75-.4,2.97-1.92,4.07-5.13,4.28h-8.77v3.84h55.77l.05-3.84Z"/>
    <g>
      <path class="cls-2" d="M240.44,297.89l-58.79-159.74c-1.15-2.99-1.73-5.75-1.73-8.28,0-4.6,1.88-10.34,5.14-13.1,3.67-3.11,8.48-5.8,20.24-6.49h3.56v-3.53s-97.65,0-97.65,0v3.53c8.74,1.84,21.15,5.39,27.93,11.48,6.78,6.1,12.02,14.09,15.7,23.98l77.48,207.72h5.71l10.7-33.26-8.31-22.32Z"/>
      <path class="cls-2" d="M269.83,106.75v3.53l10.58,3.14c4.96,1.57,15.08,5.39,21.29,12.35,4.36,4.88,7.78,14,9.21,20.45,0,0,11.64-15.28,15.69-20.27,9.77-12.04,23.98-15.66,43.05-15.66v-3.53h-99.82Z"/>
    </g>
  </g>
</svg>