<?xml version="1.0" encoding="UTF-8"?>
<svg id="Camada_1" data-name="Camada 1" xmlns="http://www.w3.org/2000/svg" xmlns:xlink="http://www.w3.org/1999/xlink" viewBox="0 0 566.93 566.93">
  <defs>
    <style>
      .cls-1 {
        fill: none;
      }

      .cls-2 {
        fill: #e94e15;
      }

      .cls-3 {
        clip-path: url(#clippath-1);
      }

      .cls-4 {
        fill: #ffffff;
      }

      .cls-5 {
        clip-path: url(#clippath);
      }
    </style>
    <clipPath id="clippath">
      <rect class="cls-1" width="566.93" height="566.93"/>
    </clipPath>
    <clipPath id="clippath-1">
      <rect class="cls-1" width="566.93" height="566.93"/>
    </clipPath>
  </defs>
  <g class="cls-5">
    <g class="cls-3">
      <path class="cls-2" d="M268.63,315.17v-.15c0-.81.15-1.57.46-2.28.3-.72.77-1.31,1.44-1.79.31-.23.7-.43,1.15-.59.42-.13.88-.2,1.37-.2.55,0,1.1.09,1.66.26.56.17,1.08.5,1.54.99.45.47.73,1.11.86,1.92h-1.26c-.14-.66-.45-1.16-.93-1.49-.47-.33-1.03-.5-1.69-.5l-.38.03-.36.04c-.5.1-.94.31-1.32.64-.38.32-.67.75-.87,1.29-.2.51-.3,1.12-.3,1.82s.08,1.29.23,1.8c.15.5.37.93.64,1.28.29.32.6.56.93.72.14.06.32.12.54.18.2.04.39.07.56.07l.05-.03c.85,0,1.53-.24,2.04-.71.49-.47.8-1.11.93-1.95h1.29c-.08.72-.3,1.36-.66,1.93-.36.57-.84,1.03-1.44,1.36-.28.15-.6.28-.97.39-.32.09-.68.13-1.06.13-.73,0-1.38-.13-1.95-.39-.55-.25-1.02-.61-1.38-1.07-.35-.44-.61-.96-.79-1.57-.12-.35-.2-.68-.26-.99-.05-.31-.08-.64-.08-.99v-.15Z"/>
      <path class="cls-2" d="M292.86,316.98c-.17.59-.43,1.14-.78,1.64-.36.52-.85.93-1.46,1.25-.63.31-1.36.47-2.2.47s-1.58-.16-2.2-.47c-.61-.3-1.1-.72-1.46-1.25-.37-.54-.63-1.09-.79-1.65-.16-.58-.24-1.15-.24-1.72s.08-1.15.24-1.72c.14-.56.41-1.1.79-1.64.37-.51.86-.92,1.48-1.23.62-.31,1.35-.47,2.19-.47s1.58.16,2.19.47c.62.31,1.11.72,1.46,1.23.37.52.63,1.06.79,1.64.16.57.24,1.14.24,1.72s-.08,1.15-.24,1.73M291.37,313.22c-.26-.58-.64-1.04-1.15-1.38-.5-.33-1.1-.5-1.8-.5s-1.31.17-1.8.5c-.5.34-.89.81-1.15,1.4-.27.59-.4,1.26-.4,2.01s.13,1.42.4,2.03c.27.6.66,1.07,1.17,1.41.49.33,1.09.5,1.79.5s1.3-.16,1.8-.5c.5-.34.88-.81,1.15-1.41.27-.61.4-1.28.4-2.03s-.13-1.43-.4-2.03"/>
      <polygon class="cls-2" points="306 310.41 307.25 310.41 307.25 320.06 305.79 320.06 300.86 312.28 300.86 320.06 299.6 320.06 299.6 310.41 301.14 310.41 306 318.23 306 310.41"/>
      <path class="cls-2" d="M319.93,313.25c0-.23-.03-.44-.09-.62-.06-.17-.16-.34-.3-.52-.26-.29-.55-.5-.89-.63-.39-.13-.77-.19-1.14-.19-.56,0-1.07.12-1.52.36-.46.24-.68.69-.68,1.34s.39,1.03,1.15,1.19l2.75.63c1.45.36,2.17,1.23,2.17,2.6,0,.69-.19,1.26-.56,1.71-.38.44-.85.75-1.44.93-.57.19-1.16.28-1.77.28-1.22,0-2.17-.28-2.86-.83-.68-.55-1.02-1.4-1.02-2.55h1.21c0,.54.13.97.39,1.32.26.34.59.58.98.72.41.15.84.23,1.3.23.38,0,.76-.05,1.15-.15.38-.1.71-.26.97-.5.26-.23.39-.56.39-.98,0-.35-.06-.62-.17-.82-.12-.2-.33-.36-.63-.5-.31-.14-.73-.27-1.23-.39l-1.44-.32c-.44-.1-.85-.24-1.25-.42-.42-.18-.75-.43-.98-.75-.25-.3-.38-.72-.38-1.26s.12-1,.35-1.45c.22-.44.59-.8,1.1-1.09.49-.28,1.12-.42,1.88-.42,1.04,0,1.83.17,2.38.5.54.33.89.72,1.07,1.17.05.13.12.34.2.62l.03.08c.05.24.08.47.08.7h-1.21Z"/>
      <polygon class="cls-2" points="327.89 310.44 335.73 310.44 335.73 311.62 332.45 311.62 332.45 320.09 331.14 320.09 331.14 311.62 327.89 311.62 327.89 310.44"/>
      <path class="cls-2" d="M342.22,310.4h4.59c.28,0,.54.03.78.09.23.04.48.11.74.23.46.2.83.5,1.1.9.28.39.42.88.42,1.45,0,1.05-.44,1.79-1.33,2.24.37.11.64.3.81.58.17.28.28.61.32.99.04.33.05.78.05,1.34,0,.48.04.86.11,1.13.06.26.2.43.42.5v.21h-1.61c-.12-.34-.17-.84-.17-1.5,0-.62-.02-1.1-.07-1.44-.03-.29-.15-.56-.38-.81-.22-.25-.63-.38-1.21-.38h-3.27v4.12h-1.29v-9.66ZM346.81,314.82c.36,0,.67-.08.93-.23.26-.15.45-.35.56-.6.06-.12.12-.25.16-.39.04-.12.05-.25.05-.4,0-.48-.13-.88-.38-1.18-.26-.31-.67-.47-1.22-.47h-3.41v3.27h3.3Z"/>
      <path class="cls-2" d="M356.71,310.41h1.32v6.29c0,.48.09.91.28,1.28.18.38.45.68.82.87.38.21.83.32,1.36.32.49,0,.94-.1,1.33-.31.39-.21.69-.49.89-.86.21-.38.31-.81.31-1.27v-6.32h1.31v6.48c0,.65-.16,1.24-.48,1.77-.34.54-.81.95-1.41,1.22-.6.29-1.29.44-2.07.44-.63,0-1.22-.13-1.79-.4-.56-.25-1.02-.64-1.36-1.17-.34-.53-.51-1.13-.51-1.81v-6.54Z"/>
      <path class="cls-2" d="M373.14,319.86c-.42-.22-.81-.55-1.18-.97-.37-.42-.65-.93-.85-1.53-.2-.59-.3-1.32-.3-2.17,0-.7.1-1.37.31-2.01.21-.63.51-1.16.9-1.61.39-.45.87-.79,1.44-1.03.56-.23,1.19-.35,1.87-.35.77,0,1.45.15,2.04.44.6.3,1.05.68,1.36,1.14.3.46.49.98.56,1.56h-1.26c-.16-.74-.5-1.26-1.02-1.56-.53-.29-1.09-.43-1.68-.43s-1.1.14-1.6.43c-.48.29-.87.72-1.15,1.29-.28.56-.42,1.27-.42,2.11,0,.62.06,1.15.17,1.61.11.47.29.9.55,1.26.25.38.58.66.99.85.38.2.88.29,1.48.29.36,0,.72-.08,1.1-.23.37-.15.7-.43,1.01-.82.31-.4.53-.94.64-1.61h1.29c-.12.8-.35,1.48-.71,2.01-.36.52-.75.91-1.17,1.17-.4.24-.81.41-1.22.5-.13.03-.31.06-.54.09-.19.03-.36.04-.51.04l-.47.58.42-.05c.41,0,.7.1.87.3.17.2.26.43.26.7,0,.37-.14.67-.43.9-.28.24-.66.36-1.14.36-.38,0-.82-.11-1.29-.32l.21-.52c.34.14.64.22.89.22.18,0,.35-.04.51-.12.15-.1.23-.25.23-.46,0-.19-.07-.32-.21-.4-.14-.08-.28-.12-.42-.12-.12,0-.3.03-.52.09l-.24-.26.68-.91c-.54-.06-1.02-.21-1.45-.44"/>
      <path class="cls-2" d="M395.03,316.98c-.17.59-.43,1.14-.78,1.64-.36.52-.85.93-1.46,1.25-.63.31-1.36.47-2.2.47s-1.58-.16-2.2-.47c-.61-.3-1.1-.72-1.46-1.25-.37-.54-.63-1.09-.79-1.65-.16-.58-.24-1.15-.24-1.72s.08-1.15.24-1.72c.14-.55.41-1.1.79-1.64.37-.51.86-.92,1.48-1.23.62-.31,1.35-.47,2.19-.47s1.58.16,2.19.47c.62.31,1.11.72,1.46,1.23.37.52.63,1.07.79,1.64.16.57.24,1.15.24,1.72s-.08,1.15-.24,1.73M393.54,313.22c-.26-.58-.64-1.04-1.15-1.38-.5-.33-1.1-.5-1.8-.5s-1.31.17-1.8.5c-.5.34-.89.81-1.15,1.4-.27.59-.4,1.26-.4,2.01s.13,1.42.4,2.03c.27.6.66,1.07,1.17,1.41.49.33,1.09.5,1.79.5s1.3-.17,1.8-.5c.5-.34.89-.81,1.15-1.41.27-.61.4-1.28.4-2.03s-.13-1.43-.4-2.03M392.99,307.89c-.04.4-.17.75-.42,1.05-.23.29-.54.43-.93.43-.17,0-.31-.02-.42-.05l-.54-.19-.55-.19s-.11-.03-.19-.05c-.04,0-.06,0-.08-.01h-.19c-.29,0-.51.2-.63.6h-.63c.12-.97.59-1.45,1.4-1.45.16,0,.32.02.47.07l.66.21c.27.12.5.19.7.22.24,0,.41-.06.5-.18.09-.12.15-.27.19-.46h.66Z"/>
      <polygon class="cls-2" points="408.87 320.07 401.77 320.07 401.77 310.42 408.79 310.42 408.79 311.6 403.06 311.6 403.06 314.54 408.35 314.54 408.35 315.69 403.06 315.69 403.06 318.91 408.87 318.91 408.87 320.07"/>
      <path class="cls-2" d="M421.55,313.23c0-.23-.03-.44-.09-.62-.06-.17-.16-.34-.3-.52-.26-.29-.55-.5-.89-.63-.39-.13-.77-.19-1.14-.19-.56,0-1.07.12-1.52.36-.46.24-.68.69-.68,1.34s.39,1.03,1.15,1.19l2.75.63c1.45.36,2.17,1.23,2.17,2.6,0,.69-.19,1.26-.56,1.71-.38.44-.85.75-1.44.93-.57.19-1.16.28-1.77.28-1.22,0-2.17-.28-2.86-.83-.68-.55-1.02-1.4-1.02-2.55h1.21c0,.54.13.97.39,1.32.26.34.59.58.98.72.41.15.84.23,1.3.23.38,0,.76-.05,1.15-.15.38-.1.71-.26.97-.5.26-.23.39-.56.39-.98,0-.35-.06-.62-.17-.82-.12-.2-.33-.36-.63-.5-.31-.14-.73-.27-1.23-.39l-1.44-.32c-.44-.1-.85-.24-1.25-.42-.42-.18-.75-.43-.98-.75-.25-.3-.38-.72-.38-1.26s.12-1,.35-1.45c.22-.44.59-.8,1.1-1.09.49-.28,1.12-.42,1.88-.42,1.04,0,1.83.17,2.38.5.54.33.89.72,1.07,1.17.05.13.12.34.2.62l.03.08c.05.24.08.47.08.7h-1.21Z"/>
      <path class="cls-2" d="M276.73,336.17h-1.53l-.91-1.1c-.2.24-.43.46-.7.67-.26.21-.56.36-.91.47-.35.12-.75.17-1.19.17-1.11,0-1.91-.36-2.39-1.07-.13-.22-.25-.47-.34-.75-.09-.24-.13-.51-.13-.81,0-.27.03-.51.09-.72.05-.21.13-.43.24-.63.29-.53.91-1.05,1.87-1.57l-.62-.82-.04-.08c-.04-.08-.08-.15-.11-.21-.04-.08-.09-.19-.15-.34-.04-.11-.06-.21-.08-.32-.02-.14-.03-.27-.03-.39,0-.36.09-.71.27-1.05.17-.33.43-.6.78-.8.33-.2.74-.29,1.24-.29s.89.09,1.22.28c.34.19.58.43.72.74.15.31.23.64.23.98,0,.39-.09.76-.27,1.09-.19.34-.39.61-.62.81-.22.2-.51.41-.85.64l1.76,2.09c.14-.38.27-.89.39-1.52h1.1c0,.38-.07.78-.2,1.18-.12.39-.31.82-.55,1.29l1.71,2.07ZM271.48,331.64c-.32.21-.64.43-.95.67-.21.18-.38.38-.51.62-.13.23-.19.51-.19.83,0,.35.1.65.31.9.2.25.44.43.72.54.27.11.5.16.7.16.89,0,1.59-.36,2.09-1.07l-2.17-2.64ZM272.8,329.51c.21-.23.31-.53.31-.9s-.1-.64-.31-.82c-.21-.17-.44-.26-.71-.26-.43,0-.73.11-.89.34-.16.22-.24.46-.24.72s.1.56.31.87c.21.33.42.6.63.8.38-.26.67-.51.9-.76"/>
      <path class="cls-2" d="M291.01,329.35c0-.23-.03-.44-.09-.62-.06-.17-.16-.34-.3-.52-.26-.29-.55-.5-.89-.63-.39-.13-.77-.19-1.14-.19-.56,0-1.07.12-1.52.36-.46.24-.68.69-.68,1.34s.39,1.03,1.15,1.19l2.75.63c1.45.36,2.17,1.23,2.17,2.6,0,.69-.19,1.26-.56,1.71-.38.44-.85.75-1.44.93-.57.19-1.16.28-1.77.28-1.22,0-2.17-.28-2.86-.83-.68-.55-1.02-1.4-1.02-2.55h1.21c0,.54.13.97.39,1.32.26.34.59.58.98.72.41.15.84.23,1.3.23.38,0,.76-.05,1.15-.15.38-.1.71-.26.97-.5.26-.23.39-.56.39-.98,0-.35-.06-.62-.17-.82-.12-.2-.33-.36-.63-.5-.31-.14-.73-.27-1.23-.39l-1.44-.32c-.44-.1-.85-.24-1.25-.42-.42-.18-.75-.43-.98-.75-.25-.3-.38-.72-.38-1.26s.12-1,.35-1.45c.22-.44.59-.8,1.1-1.09.49-.28,1.12-.42,1.88-.42,1.04,0,1.83.16,2.38.5.54.33.89.72,1.07,1.17.05.13.12.34.2.62l.03.08c.05.24.08.47.08.7h-1.21Z"/>
      <polygon class="cls-2" points="306.07 336.17 298.97 336.17 298.97 326.52 305.99 326.52 305.99 327.7 300.26 327.7 300.26 330.64 305.54 330.64 305.54 331.8 300.26 331.8 300.26 335.02 306.07 335.02 306.07 336.17"/>
      <path class="cls-2" d="M312.5,326.51h4.59c.28,0,.54.03.78.09.23.04.48.11.74.23.46.21.83.51,1.1.9.28.39.42.88.42,1.45,0,1.05-.44,1.79-1.33,2.24.37.11.64.3.81.58.17.28.28.61.32.99.04.33.05.78.05,1.34,0,.48.04.86.11,1.13.06.26.2.43.42.5v.21h-1.61c-.12-.34-.17-.84-.17-1.5,0-.62-.02-1.1-.07-1.44-.03-.29-.15-.56-.38-.81-.22-.25-.63-.38-1.21-.38h-3.27v4.12h-1.29v-9.66ZM317.09,330.92c.36,0,.67-.08.93-.23.26-.15.45-.35.56-.6.06-.12.12-.25.16-.39.04-.12.05-.25.05-.4,0-.48-.13-.88-.38-1.18-.26-.31-.67-.47-1.22-.47h-3.41v3.27h3.3Z"/>
      <polygon class="cls-2" points="333.93 326.52 335.4 326.52 331.89 336.17 330.5 336.17 326.99 326.52 328.43 326.52 331.21 334.76 333.93 326.52"/>
      <rect class="cls-2" x="341.89" y="326.52" width="1.32" height="9.65"/>
      <path class="cls-2" d="M352.03,335.97c-.42-.22-.81-.55-1.18-.97-.37-.42-.65-.93-.85-1.53-.2-.59-.3-1.32-.3-2.17,0-.7.1-1.37.31-2.01.21-.63.51-1.16.9-1.61.39-.45.87-.79,1.44-1.03.56-.23,1.19-.35,1.87-.35.77,0,1.45.15,2.04.44.6.3,1.05.68,1.36,1.14.3.46.49.98.56,1.56h-1.26c-.16-.74-.5-1.26-1.02-1.56-.53-.29-1.09-.43-1.68-.43s-1.1.14-1.6.43c-.48.29-.87.72-1.15,1.29-.28.56-.42,1.27-.42,2.11,0,.62.06,1.15.17,1.61.11.47.29.9.55,1.26.25.38.58.66.99.85.38.2.88.29,1.48.29.36,0,.72-.08,1.1-.23.37-.15.7-.43,1.01-.82.31-.4.53-.94.64-1.61h1.29c-.12.8-.35,1.48-.71,2.01-.36.52-.75.91-1.17,1.17-.4.24-.81.41-1.22.5-.13.03-.31.06-.54.09-.19.03-.36.04-.51.04l-.47.58.42-.05c.41,0,.7.1.87.3.17.2.26.43.26.7,0,.37-.14.67-.43.9-.28.24-.66.36-1.14.36-.38,0-.82-.11-1.29-.32l.21-.52c.34.14.64.22.89.22.18,0,.35-.04.51-.12.15-.1.23-.25.23-.46,0-.19-.07-.32-.21-.4-.14-.08-.28-.12-.42-.12-.12,0-.3.03-.52.09l-.24-.26.68-.91c-.54-.06-1.02-.21-1.45-.44"/>
      <path class="cls-2" d="M373.92,333.08c-.17.59-.43,1.14-.78,1.64-.36.52-.85.93-1.46,1.25-.63.31-1.36.47-2.2.47s-1.58-.16-2.2-.47c-.61-.3-1.1-.72-1.46-1.25-.37-.54-.63-1.09-.79-1.65-.16-.58-.24-1.15-.24-1.72s.08-1.15.24-1.72c.14-.56.41-1.1.79-1.64.37-.51.86-.92,1.48-1.23.62-.31,1.35-.47,2.19-.47s1.58.16,2.19.47c.62.31,1.11.72,1.46,1.23.37.52.63,1.06.79,1.64.16.57.24,1.14.24,1.72s-.08,1.15-.24,1.73M372.43,329.33c-.26-.58-.64-1.04-1.15-1.38-.5-.33-1.1-.5-1.8-.5s-1.31.17-1.8.5c-.5.34-.89.81-1.15,1.4-.27.59-.4,1.26-.4,2.01s.13,1.42.4,2.03c.27.6.66,1.07,1.17,1.41.49.33,1.09.5,1.79.5s1.3-.16,1.8-.5c.5-.34.88-.81,1.15-1.41.27-.61.4-1.28.4-2.03s-.13-1.43-.4-2.03"/>
      <path class="cls-2" d="M386.84,329.35c0-.23-.03-.44-.09-.62-.06-.17-.16-.34-.3-.52-.26-.29-.55-.5-.89-.63-.39-.13-.77-.19-1.14-.19-.56,0-1.07.12-1.52.36-.46.24-.68.69-.68,1.34s.39,1.03,1.15,1.19l2.75.63c1.45.36,2.17,1.23,2.17,2.6,0,.69-.19,1.26-.56,1.71-.38.44-.85.75-1.44.93-.57.19-1.16.28-1.77.28-1.22,0-2.17-.28-2.86-.83-.68-.55-1.02-1.4-1.02-2.55h1.21c0,.54.13.97.39,1.32.26.34.59.58.98.72.41.15.84.23,1.3.23.38,0,.76-.05,1.15-.15.38-.1.71-.26.97-.5.26-.23.39-.56.39-.98,0-.35-.06-.62-.17-.82-.12-.2-.33-.36-.63-.5-.31-.14-.73-.27-1.23-.39l-1.44-.32c-.44-.1-.85-.24-1.25-.42-.42-.18-.75-.43-.98-.75-.25-.3-.38-.72-.38-1.26s.12-1,.35-1.45c.22-.44.59-.8,1.1-1.09.49-.28,1.12-.42,1.88-.42,1.04,0,1.83.16,2.38.5.54.33.89.72,1.07,1.17.05.13.12.34.2.62l.03.08c.05.24.08.47.08.7h-1.21Z"/>
      <path class="cls-4" d="M271.28,243.99c-.54.23-1,.53-1.39.94-.39.4-.71.88-.93,1.42-.22.54-.34,1.12-.34,1.73v37.57c0,2.55.46,4.72,1.37,6.45.92,1.75,2.07,3.18,3.43,4.27,1.37,1.09,2.87,1.88,4.47,2.36,1.63.48,3.14.73,4.49.73h36.75v-8.77h-36.67c-1.61,0-2.87-.44-3.75-1.32s-1.32-2.12-1.32-3.71v-33.23h41.74v-8.77h-46.08c-.63,0-1.23.11-1.77.34"/>
      <rect class="cls-4" x="283.2" y="267.13" width="31.24" height="8.85"/>
      <path class="cls-4" d="M339.6,243.66h-8.77v51.37c0,.64.11,1.23.34,1.77.22.54.53,1.01.92,1.4.39.39.86.7,1.4.92.54.22,1.13.34,1.77.34h46.68v-8.77h-42.34v-47.02Z"/>
      <path class="cls-4" d="M445.04,254.05c-.63-1.37-1.43-2.7-2.39-3.95-.95-1.24-2.11-2.34-3.46-3.29-1.35-.95-2.95-1.72-4.73-2.29-1.78-.57-3.82-.86-6.08-.86h-23.55c-1.36,0-2.87.25-4.49.74-1.6.49-3.11,1.28-4.48,2.36-1.36,1.07-2.51,2.5-3.42,4.26-.91,1.74-1.37,3.9-1.37,6.43v42h8.77v-42c0-1.58.45-2.83,1.32-3.71.88-.88,2.14-1.32,3.74-1.32h23.47c1.47,0,2.79.24,3.93.73,1.14.48,2.13,1.16,2.94,2.01.81.85,1.45,1.88,1.91,3.07.45,1.16.75,2.44.89,3.82v4.81c0,1.43-.23,2.74-.7,3.89-.47,1.16-1.14,2.16-1.99,2.99-.85.82-1.87,1.47-3.04,1.95-1.15.47-2.46.77-3.87.88h-22.8v8.77h22.73c1.22,0,2.55-.14,3.94-.42,1.39-.28,2.79-.73,4.15-1.35,1.37-.61,2.69-1.42,3.94-2.38,1.24-.96,2.35-2.13,3.29-3.49.95-1.35,1.71-2.94,2.27-4.72.56-1.78.84-3.84.84-6.12v-4.73c0-1.22-.14-2.55-.42-3.94-.28-1.39-.74-2.78-1.36-4.15"/>
      <polygon class="cls-2" points="203.84 335.82 127.21 335.82 124.72 344.02 209.92 344.02 218.17 316.95 211.21 311.63 203.84 335.82"/>
      <polygon class="cls-2" points="162.83 247.06 230.89 247.06 220.6 280.82 227.55 286.15 241.97 238.85 156.76 238.85 138.57 298.58 148.3 294.77 162.83 247.06"/>
      <polygon class="cls-2" points="206.41 283.61 111.78 320.61 108.73 330.61 205.08 292.94 240.27 319.89 240.33 319.8 242.85 311.53 206.41 283.61"/>
    </g>
  </g>
</svg>