<svg xmlns="http://www.w3.org/2000/svg" viewBox="0 0 390 844" width="390" height="844">
  <defs>
    <linearGradient id="chartFill" x1="0%" y1="0%" x2="0%" y2="100%">
      <stop offset="0%" stop-color="#3DAFA6" stop-opacity="0.20"/>
      <stop offset="100%" stop-color="#3DAFA6" stop-opacity="0"/>
    </linearGradient>
    <linearGradient id="cardGrad" x1="0%" y1="0%" x2="0%" y2="100%">
      <stop offset="0%" stop-color="#0F2337"/>
      <stop offset="100%" stop-color="#0C1E2F"/>
    </linearGradient>
    <clipPath id="chartClip">
      <rect x="28" y="295" width="334" height="120" rx="0"/>
    </clipPath>
  </defs>

  <!-- ── Background ── -->
  <rect width="390" height="844" fill="#08172A"/>

  <!-- ── Status bar ── -->
  <text x="28" y="56" font-family="-apple-system, BlinkMacSystemFont, sans-serif" font-size="13" font-weight="600" fill="#F0EDE3" opacity="0.85">9:41</text>
  <!-- Signal bars -->
  <rect x="310" y="48" width="4" height="7"  rx="1" fill="#F0EDE3" opacity="0.4"/>
  <rect x="317" y="45" width="4" height="10" rx="1" fill="#F0EDE3" opacity="0.6"/>
  <rect x="324" y="42" width="4" height="13" rx="1" fill="#F0EDE3" opacity="0.85"/>
  <!-- Wifi -->
  <path d="M336 54 Q341 49.5 346 54" fill="none" stroke="#F0EDE3" stroke-width="1.6" stroke-linecap="round" opacity="0.7"/>
  <path d="M339 57 Q341 55 343 57"  fill="none" stroke="#F0EDE3" stroke-width="1.6" stroke-linecap="round" opacity="0.7"/>
  <circle cx="341" cy="60" r="1.4" fill="#F0EDE3" opacity="0.7"/>
  <!-- Battery -->
  <rect x="352" y="49" width="22" height="11" rx="2.5" fill="none" stroke="#F0EDE3" stroke-width="1.4" opacity="0.7"/>
  <rect x="374" y="52.5" width="2" height="4" rx="1" fill="#F0EDE3" opacity="0.5"/>
  <rect x="353.5" y="50.5" width="15" height="8" rx="1.5" fill="#3DAFA6" opacity="0.9"/>

  <!-- ── App header ── -->
  <text x="28" y="102" font-family="-apple-system, BlinkMacSystemFont, sans-serif" font-size="22" font-weight="700" fill="#F0EDE3" letter-spacing="-0.3">North</text>
  <!-- Notification bell icon -->
  <g transform="translate(332,88)" fill="none" stroke="#9DAEC0" stroke-width="1.6" stroke-linecap="round">
    <path d="M0,-7 C-4,-7 -7,-4 -7,0 L-7,5 L-9,7 L9,7 L7,5 L7,0 C7,-4 4,-7 0,-7 Z"/>
    <line x1="-2" y1="7" x2="2" y2="7"/>
    <path d="M-2,9 Q0,11 2,9" stroke-width="1.4"/>
  </g>
  <!-- Grid icon -->
  <g transform="translate(362,88)" fill="none" stroke="#9DAEC0" stroke-width="1.6" stroke-linecap="round" stroke-linejoin="round">
    <rect x="-9" y="-9" width="7" height="7" rx="1.5"/>
    <rect x="2"  y="-9" width="7" height="7" rx="1.5"/>
    <rect x="-9" y="2"  width="7" height="7" rx="1.5"/>
    <rect x="2"  y="2"  width="7" height="7" rx="1.5"/>
  </g>

  <!-- ── Dashboard heading ── -->
  <text x="28" y="152" font-family="-apple-system, BlinkMacSystemFont, sans-serif" font-size="30" font-weight="800" fill="#F0EDE3" letter-spacing="-0.8">Dashboard</text>
  <!-- Active indicator circle -->
  <circle cx="358" cy="140" r="14" fill="#3DAFA6" opacity="0.15"/>
  <circle cx="358" cy="140" r="10" fill="#3DAFA6" opacity="0.2"/>
  <circle cx="358" cy="140" r="5"  fill="#3DAFA6"/>
  <circle cx="358" cy="140" r="2.5" fill="#08172A"/>

  <!-- ── Tabs ── -->
  <text x="28"  y="185" font-family="-apple-system, BlinkMacSystemFont, sans-serif" font-size="14" font-weight="600" fill="#F0EDE3">Overview</text>
  <!-- Active tab underline -->
  <rect x="28" y="191" width="70" height="2" rx="1" fill="#3DAFA6"/>
  <text x="120" y="185" font-family="-apple-system, BlinkMacSystemFont, sans-serif" font-size="14" fill="#6E84A0">Performance</text>

  <!-- ── Chart card ── -->
  <rect x="28" y="206" width="334" height="210" rx="18" fill="url(#cardGrad)" stroke="rgba(255,255,255,0.06)" stroke-width="1.5"/>

  <!-- Card content: Total Users -->
  <text x="48" y="234" font-family="-apple-system, BlinkMacSystemFont, sans-serif" font-size="11" fill="#6E84A0" letter-spacing="0.3">Total Users</text>
  <text x="48" y="266" font-family="-apple-system, BlinkMacSystemFont, sans-serif" font-size="34" font-weight="800" fill="#F0EDE3" letter-spacing="-1">12,540</text>
  <!-- Growth badge -->
  <rect x="294" y="244" width="60" height="22" rx="11" fill="#3DAFA6" opacity="0.12"/>
  <text x="324" y="259" font-family="-apple-system, BlinkMacSystemFont, sans-serif" font-size="12" font-weight="600" fill="#3DAFA6" text-anchor="middle">+13.5%</text>

  <!-- Chart area — fill under curve -->
  <polygon
    points="48,385 78,372 118,378 158,360 198,368 238,348 278,332 318,318 354,300 354,390 48,390"
    fill="url(#chartFill)"
    clip-path="url(#chartClip)"
  />
  <!-- Chart line -->
  <polyline
    points="48,385 78,372 118,378 158,360 198,368 238,348 278,332 318,318 354,300"
    fill="none"
    stroke="#3DAFA6"
    stroke-width="2.5"
    stroke-linecap="round"
    stroke-linejoin="round"
    clip-path="url(#chartClip)"
  />
  <!-- Endpoint dot -->
  <circle cx="354" cy="300" r="4.5" fill="#3DAFA6"/>
  <circle cx="354" cy="300" r="8" fill="#3DAFA6" opacity="0.2"/>

  <!-- X-axis labels -->
  <text x="48"  y="408" font-family="-apple-system, BlinkMacSystemFont, sans-serif" font-size="10" fill="#45607F" text-anchor="middle">JAN</text>
  <text x="105" y="408" font-family="-apple-system, BlinkMacSystemFont, sans-serif" font-size="10" fill="#45607F" text-anchor="middle">FEB</text>
  <text x="162" y="408" font-family="-apple-system, BlinkMacSystemFont, sans-serif" font-size="10" fill="#45607F" text-anchor="middle">MAR</text>
  <text x="219" y="408" font-family="-apple-system, BlinkMacSystemFont, sans-serif" font-size="10" fill="#45607F" text-anchor="middle">APR</text>
  <text x="276" y="408" font-family="-apple-system, BlinkMacSystemFont, sans-serif" font-size="10" fill="#45607F" text-anchor="middle">MAY</text>
  <text x="333" y="408" font-family="-apple-system, BlinkMacSystemFont, sans-serif" font-size="10" fill="#45607F" text-anchor="middle">JUN</text>

  <!-- ── Projects section ── -->
  <!-- Section header -->
  <text x="28"  y="444" font-family="-apple-system, BlinkMacSystemFont, sans-serif" font-size="17" font-weight="700" fill="#F0EDE3">Projects</text>
  <rect x="318" y="430" width="44" height="20" rx="10" fill="#3DAFA6" opacity="0.12"/>
  <text x="340" y="444" font-family="-apple-system, BlinkMacSystemFont, sans-serif" font-size="11" font-weight="600" fill="#3DAFA6" text-anchor="middle">Latest</text>

  <!-- Project row 1 -->
  <rect x="28" y="458" width="334" height="66" rx="16" fill="url(#cardGrad)" stroke="rgba(255,255,255,0.06)" stroke-width="1.5"/>
  <!-- Icon -->
  <circle cx="62" cy="491" r="14" fill="#3DAFA6" opacity="0.12"/>
  <circle cx="62" cy="491" r="6"  fill="#3DAFA6"/>
  <circle cx="62" cy="491" r="3"  fill="#08172A"/>
  <!-- Text -->
  <text x="88" y="487" font-family="-apple-system, BlinkMacSystemFont, sans-serif" font-size="14" font-weight="600" fill="#F0EDE3">North Platform</text>
  <text x="88" y="505" font-family="-apple-system, BlinkMacSystemFont, sans-serif" font-size="11" fill="#6E84A0">Web · React · Node</text>
  <!-- Status badge -->
  <rect x="306" y="480" width="48" height="20" rx="10" fill="#3DAFA6" opacity="0.12"/>
  <circle cx="316" cy="490" r="3" fill="#3DAFA6"/>
  <text x="344" y="494" font-family="-apple-system, BlinkMacSystemFont, sans-serif" font-size="11" font-weight="500" fill="#3DAFA6" text-anchor="middle">Active</text>

  <!-- Project row 2 -->
  <rect x="28" y="536" width="334" height="66" rx="16" fill="url(#cardGrad)" stroke="rgba(255,255,255,0.06)" stroke-width="1.5"/>
  <!-- Icon -->
  <circle cx="62" cy="569" r="14" fill="#3DAFA6" opacity="0.08"/>
  <circle cx="62" cy="569" r="6"  fill="#3DAFA6" opacity="0.7"/>
  <circle cx="62" cy="569" r="3"  fill="#08172A"/>
  <!-- Text -->
  <text x="88" y="565" font-family="-apple-system, BlinkMacSystemFont, sans-serif" font-size="14" font-weight="600" fill="#F0EDE3">Analytics Engine</text>
  <text x="88" y="583" font-family="-apple-system, BlinkMacSystemFont, sans-serif" font-size="11" fill="#6E84A0">API · Python · ML</text>
  <!-- Status badge -->
  <rect x="306" y="558" width="48" height="20" rx="10" fill="#3DAFA6" opacity="0.12"/>
  <circle cx="316" cy="568" r="3" fill="#3DAFA6"/>
  <text x="344" y="572" font-family="-apple-system, BlinkMacSystemFont, sans-serif" font-size="11" font-weight="500" fill="#3DAFA6" text-anchor="middle">Active</text>

  <!-- ── Bottom navigation bar ── -->
  <rect x="0" y="730" width="390" height="90" fill="#08172A"/>
  <line x1="0" y1="730" x2="390" y2="730" stroke="rgba(255,255,255,0.06)" stroke-width="1"/>
  <!-- Home icon (active) -->
  <g transform="translate(50,758)" fill="none" stroke="#3DAFA6" stroke-width="1.8" stroke-linecap="round" stroke-linejoin="round">
    <polyline points="-13,7 0,-7 13,7"/>
    <rect x="-8" y="1" width="16" height="12" rx="2"/>
  </g>
  <circle cx="50" cy="780" r="2.5" fill="#3DAFA6"/>
  <!-- Chart icon -->
  <g transform="translate(130,758)" fill="none" stroke="#45607F" stroke-width="1.8" stroke-linecap="round" stroke-linejoin="round">
    <polyline points="-12,8 -5,-2 3,4 12,-8"/>
  </g>
  <!-- Users icon -->
  <g transform="translate(210,758)" fill="none" stroke="#45607F" stroke-width="1.8" stroke-linecap="round">
    <circle cx="-5" cy="-5" r="5"/>
    <path d="M-15,8 Q-15,2 -5,2 Q5,2 5,8"/>
    <circle cx="8" cy="-5" r="4" opacity="0.6"/>
    <path d="M4,8 Q5,4 8,4 Q12,4 14,6" opacity="0.6"/>
  </g>
  <!-- Settings icon -->
  <g transform="translate(340,758)" fill="none" stroke="#45607F" stroke-width="1.8" stroke-linecap="round">
    <circle cx="0" cy="0" r="5"/>
    <circle cx="0" cy="0" r="10" stroke-dasharray="3.14 2.72"/>
  </g>

  <!-- ── Bottom home indicator ── -->
  <rect x="152" y="826" width="86" height="5" rx="2.5" fill="rgba(255,255,255,0.22)"/>
</svg>
