<?xml version="1.0" encoding="UTF-8"?>
<svg id="Layer_1" data-name="Layer 1" xmlns="http://www.w3.org/2000/svg" viewBox="0 0 375 286">
  <defs>
    <style>
      .cls-1 {
        fill: #efede2;
      }

      .cls-2 {
        fill: #f1ede1;
      }

      .cls-3 {
        font-family: Inter-SemiBold, Inter;
        font-size: 24.84px;
        font-weight: 600;
      }

      .cls-3, .cls-4 {
        fill: #44afa6;
      }

      .cls-5 {
        letter-spacing: -.02em;
      }

      .cls-6 {
        letter-spacing: -.05em;
      }
    </style>
  </defs>
  <text class="cls-3" transform="translate(141.39 186.17)"><tspan class="cls-5" x="0" y="0">softwa</tspan><tspan class="cls-6" x="78.97" y="0">r</tspan><tspan class="cls-5" x="88.06" y="0">e</tspan></text>
  <path class="cls-1" d="M78.9,86.04h4.2s-4.13,0-4.13,0c-1.97,0-3.56,1.1-3.56,3.06v71.89h11.35c1.6,0,2.9-1.3,2.9-2.9v-59.68l-2.5-5.26c-2-3.61-3.54-7.11-8.27-7.11Z"/>
  <path class="cls-1" d="M132.33,85.54c-1.97,0-3.56,1.59-3.56,3.56v55.49s3.83,8.16,3.83,8.16c2.01,4.14,2.74,8.14,7.38,8.19h.14c1.6,0,2.9-1.29,2.9-2.89v-72.5h-10.69Z"/>
  <path class="cls-4" d="M132.6,152.74l-3.82-8.16-23.74-50.68c-2-3.8-3.83-7.87-8.56-7.87h-13.37s-4.2.01-4.2.01c4.73,0,6.26,3.49,8.27,7.11l2.5,5.26,25.89,54.52c2.02,3.98,3.83,7.87,8.56,7.87l15.96.13s-.06,0-.09,0c-4.65-.05-5.37-4.04-7.38-8.19Z"/>
  <path class="cls-2" d="M147.97,136.11c0-14.95,9.11-24.94,23.75-24.94s23.75,9.99,23.75,24.94-9.11,24.88-23.75,24.88-23.75-10.02-23.75-24.88ZM181.87,136.01c0-8.42-3.46-14.64-10.08-14.64s-10.21,6.22-10.21,14.64,3.46,14.61,10.21,14.61,10.08-6.19,10.08-14.61Z"/>
  <path class="cls-2" d="M199.77,111.79h12.98v8.42h.5c1.76-5.97,6.19-9.11,11.59-9.11,1.35,0,3.02.19,4.21.47v11.88c-1.26-.41-3.8-.72-5.65-.72-5.91,0-10.24,4.08-10.24,10.02v27.3h-13.38v-48.26Z"/>
  <path class="cls-2" d="M260.19,121.84h-9.08v23.37c0,3.71,1.85,4.71,4.52,4.71,1.26,0,2.67-.31,3.33-.44l2.1,9.96c-1.35.44-3.8,1.13-7.26,1.26-9.71.41-16.15-4.27-16.09-13.73v-25.13h-6.6v-10.05h6.6v-11.56h13.38v11.56h9.08v10.05Z"/>
  <path class="cls-2" d="M278.85,160.04h-13.38v-64.34h13.01v24.6h.57c2.2-5.69,7.1-9.14,14.42-9.14,10.05,0,16.71,6.85,16.68,18.16v30.73h-13.38v-28.34c.03-5.94-3.17-9.43-8.61-9.43s-9.27,3.64-9.3,9.86v27.9Z"/>
</svg>