<?xml version="1.0" encoding="UTF-8"?>
<svg id="Layer_1" data-name="Layer 1" xmlns="http://www.w3.org/2000/svg" viewBox="93 49 170 168">
  <defs>
    <style>
      .cls-1 {
        fill: #efede2;
      }

      .cls-3 {
        fill: #44afa6;
      }
    </style>
  </defs>
  <path fill="#44afa6" transform="translate(94.49 215.13)" d="M20.23-16.33C19.51-20.09 16.51-22.49 11.30-22.49C5.95-22.49 2.31-19.86 2.33-15.75C2.31-12.52 4.31-10.38 8.57-9.50L12.36-8.70C14.40-8.25 15.35-7.43 15.35-6.17C15.35-4.65 13.70-3.51 11.22-3.51C8.82-3.51 7.26-4.55 6.81-6.55L1.71-6.06C2.36-1.98 5.78 0.43 11.23 0.43C16.78 0.43 20.70-2.44 20.71-6.65C20.70-9.81 18.66-11.75 14.47-12.66L10.68-13.47C8.43-13.98 7.53-14.76 7.54-16.04C7.53-17.55 9.19-18.59 11.37-18.59C13.79-18.59 15.06-17.27 15.46-15.81M33.50 0.43C40 0.43 44.13-4.15 44.13-11.01C44.13-17.89 40-22.49 33.50-22.49C26.99-22.49 22.86-17.89 22.86-11.01C22.86-4.15 26.99 0.43 33.50 0.43M33.52-3.76C29.93-3.76 28.16-6.97 28.16-11.03C28.16-15.09 29.93-18.34 33.52-18.34C37.07-18.34 38.83-15.09 38.83-11.03C38.83-6.97 37.07-3.76 33.52-3.76M58.72-22.20L54.11-22.20L54.11-23.95C54.11-25.68 54.84-26.65 56.79-26.65C57.61-26.65 58.30-26.46 58.74-26.33L59.79-30.38C59.11-30.61 57.63-30.99 55.82-30.99C51.96-30.99 48.88-28.78 48.88-24.30L48.88-22.20L45.60-22.20L45.60-18.15L48.88-18.15L48.88 0L54.11 0L54.11-18.15L58.72-18.15M72.69-22.20L68.31-22.20L68.31-27.52L63.08-27.52L63.08-22.20L59.93-22.20L59.93-18.15L63.08-18.15L63.08-5.81C63.05-1.63 66.09 0.42 70.02 0.30C71.51 0.26 72.53-0.03 73.10-0.22L72.22-4.31C71.93-4.23 71.33-4.10 70.68-4.10C69.37-4.10 68.31-4.57 68.31-6.68L68.31-18.15L72.69-18.15M80.43 0L85.90 0L90.06-15L90.36-15L94.52 0L99.97 0L106.26-22.20L100.91-22.20L97.07-6.68L96.85-6.68L92.86-22.20L87.59-22.20L83.60-6.59L83.40-6.59L79.49-22.20L74.16-22.20M115.10 0.45C118.58 0.45 120.66-1.19 121.62-3.05L121.79-3.05L121.79 0L126.82 0L126.82-14.86C126.82-20.73 122.04-22.49 117.80-22.49C113.13-22.49 109.55-20.41 108.39-16.36L113.28-15.67C113.80-17.18 115.27-18.49 117.83-18.49C120.26-18.49 121.59-17.24 121.59-15.06L121.59-14.97C121.59-13.47 120.01-13.40 116.10-12.98C111.79-12.52 107.67-11.23 107.67-6.23C107.67-1.86 110.86 0.45 115.10 0.45M116.46-3.40C114.28-3.40 112.71-4.39 112.71-6.32C112.71-8.33 114.46-9.16 116.80-9.50C118.18-9.68 120.92-10.03 121.60-10.58L121.60-7.96C121.60-5.49 119.61-3.40 116.46-3.40M132.10 0L137.33 0L137.33-13.05C137.33-15.86 139.44-17.84 142.17-17.84C143.02-17.84 143.68-17.63 144.24-17.37L145.86-21.71C145.08-22.20 144.08-22.52 142.88-22.52C140.32-22.52 138.21-21.07 137.40-18.50L137.17-18.50L137.17-22.20L132.10-22.20M156.82 0.43C161.99 0.43 165.55-2.10 166.47-5.95L161.59-6.50C160.88-4.62 159.14-3.64 156.89-3.64C153.51-3.64 151.27-5.87 151.22-9.67L166.69-9.67L166.69-11.27C166.69-19.06 162.01-22.49 156.54-22.49C150.18-22.49 146.03-17.82 146.03-10.97C146.03-4 150.12 0.43 156.82 0.43M151.24-13.20C151.40-16.03 153.49-18.41 156.61-18.41C159.62-18.41 161.64-16.22 161.67-13.20"/>
  <path class="cls-1" d="M129.02,51.05h6.89s-6.76,0-6.76,0c-3.22,0-5.83,1.8-5.83,5.02v117.8h18.6c2.62,0,4.75-2.12,4.75-4.75v-97.8l-4.09-8.62c-3.28-5.92-5.8-11.65-13.55-11.65Z"/>
  <path class="cls-1" d="M216.58,50.23c-3.22,0-5.83,2.61-5.83,5.83v90.92s6.28,13.37,6.28,13.37c3.29,6.79,4.48,13.33,12.1,13.42h.23c2.62,0,4.75-2.12,4.75-4.74V50.23h-17.51Z"/>
  <path class="cls-3" d="M217.02,160.35l-6.26-13.37-38.91-83.05c-3.28-6.22-6.28-12.9-14.03-12.9l-21.91.02h-6.89c7.75,0,10.26,5.73,13.55,11.65l4.09,8.62,42.42,89.34c3.31,6.53,6.28,12.9,14.03,12.9l26.16.21s-.1,0-.15,0c-7.61-.08-8.8-6.63-12.1-13.42Z"/>
</svg>
