<?xml version="1.0" encoding="UTF-8"?>
<svg id="Layer_1" data-name="Layer 1" xmlns="http://www.w3.org/2000/svg" viewBox="0 0 375 286">
  <defs>
    <style>
      .cls-1 {
        fill: #efede2;
      }

      .cls-2 {
        font-family: Inter-SemiBold, Inter;
        font-size: 40.7px;
        font-weight: 600;
      }

      .cls-2, .cls-3 {
        fill: #44afa6;
      }

      .cls-4 {
        letter-spacing: -.03em;
      }

      .cls-5 {
        letter-spacing: -.05em;
      }
    </style>
  </defs>
  <text class="cls-2" transform="translate(94.49 215.13)"><tspan class="cls-4" x="0" y="0">softwa</tspan><tspan class="cls-5" x="129.41" y="0">r</tspan><tspan class="cls-4" x="144.3" y="0">e</tspan></text>
  <path class="cls-1" d="M129.02,51.05h6.89s-6.76,0-6.76,0c-3.22,0-5.83,1.8-5.83,5.02v117.8h18.6c2.62,0,4.75-2.12,4.75-4.75v-97.8l-4.09-8.62c-3.28-5.92-5.8-11.65-13.55-11.65Z"/>
  <path class="cls-1" d="M216.58,50.23c-3.22,0-5.83,2.61-5.83,5.83v90.92s6.28,13.37,6.28,13.37c3.29,6.79,4.48,13.33,12.1,13.42h.23c2.62,0,4.75-2.12,4.75-4.74V50.23h-17.51Z"/>
  <path class="cls-3" d="M217.02,160.35l-6.26-13.37-38.91-83.05c-3.28-6.22-6.28-12.9-14.03-12.9l-21.91.02h-6.89c7.75,0,10.26,5.73,13.55,11.65l4.09,8.62,42.42,89.34c3.31,6.53,6.28,12.9,14.03,12.9l26.16.21s-.1,0-.15,0c-7.61-.08-8.8-6.63-12.1-13.42Z"/>
</svg>