<?xml version="1.0" encoding="UTF-8"?>
<svg id="Layer_1" data-name="Layer 1" xmlns="http://www.w3.org/2000/svg" viewBox="74 84 238 104">
  <defs>
    <style>
      .cls-1 {
        fill: #efede2;
      }

      .cls-2 {
        fill: #f1ede1;
      }

      .cls-4 {
        fill: #44afa6;
      }
    </style>
  </defs>
  <path fill="#44afa6" transform="translate(141.39 186.17)" d="M12.35-9.97C11.91-12.26 10.07-13.73 6.90-13.73C3.63-13.73 1.41-12.12 1.42-9.61C1.41-7.64 2.63-6.33 5.23-5.80L7.54-5.31C8.79-5.04 9.37-4.53 9.37-3.77C9.37-2.84 8.36-2.14 6.85-2.14C5.38-2.14 4.43-2.78 4.15-4L1.04-3.70C1.44-1.21 3.53 0.26 6.85 0.26C10.24 0.26 12.63-1.49 12.64-4.06C12.63-5.99 11.39-7.17 8.83-7.73L6.52-8.22C5.14-8.53 4.60-9.01 4.60-9.79C4.60-10.71 5.61-11.34 6.94-11.34C8.42-11.34 9.19-10.54 9.44-9.65M20.69 0.26C24.66 0.26 27.18-2.53 27.18-6.72C27.18-10.92 24.66-13.73 20.69-13.73C16.72-13.73 14.20-10.92 14.20-6.72C14.20-2.53 16.72 0.26 20.69 0.26M20.71-2.29C18.51-2.29 17.44-4.25 17.44-6.73C17.44-9.21 18.51-11.19 20.71-11.19C22.87-11.19 23.95-9.21 23.95-6.73C23.95-4.25 22.87-2.29 20.71-2.29M36.34-13.55L33.52-13.55L33.52-14.62C33.52-15.67 33.96-16.27 35.15-16.27C35.66-16.27 36.08-16.15 36.35-16.07L36.99-18.54C36.58-18.68 35.67-18.91 34.56-18.91C32.21-18.91 30.33-17.56 30.33-14.83L30.33-13.55L28.33-13.55L28.33-11.08L30.33-11.08L30.33 0L33.52 0L33.52-11.08L36.34-11.08M45.11-13.55L42.44-13.55L42.44-16.80L39.25-16.80L39.25-13.55L37.32-13.55L37.32-11.08L39.25-11.08L39.25-3.55C39.23-1 41.08 0.26 43.48 0.19C44.39 0.16 45.01-0.02 45.36-0.13L44.82-2.63C44.64-2.58 44.28-2.51 43.88-2.51C43.08-2.51 42.44-2.79 42.44-4.08L42.44-11.08L45.11-11.08M50.08 0L53.42 0L55.96-9.16L56.14-9.16L58.68 0L62.01 0L65.85-13.55L62.58-13.55L60.24-4.08L60.10-4.08L57.67-13.55L54.45-13.55L52.02-4.02L51.89-4.02L49.51-13.55L46.25-13.55M71.49 0.27C73.61 0.27 74.89-0.72 75.47-1.86L75.57-1.86L75.57 0L78.64 0L78.64-9.07C78.64-12.65 75.72-13.73 73.14-13.73C70.29-13.73 68.10-12.46 67.40-9.99L70.38-9.56C70.70-10.49 71.59-11.28 73.16-11.28C74.64-11.28 75.45-10.52 75.45-9.19L75.45-9.14C75.45-8.22 74.49-8.18 72.10-7.92C69.47-7.64 66.96-6.85 66.96-3.80C66.96-1.14 68.90 0.27 71.49 0.27M72.32-2.07C70.99-2.07 70.03-2.68 70.03-3.85C70.03-5.08 71.10-5.59 72.53-5.80C73.37-5.91 75.04-6.12 75.46-6.46L75.46-4.86C75.46-3.35 74.24-2.07 72.32-2.07M80.61 0L83.80 0L83.80-7.97C83.80-9.68 85.09-10.89 86.76-10.89C87.28-10.89 87.68-10.76 88.02-10.60L89.01-13.25C88.53-13.55 87.92-13.74 87.19-13.74C85.63-13.74 84.34-12.86 83.85-11.29L83.71-11.29L83.71-13.55L80.61-13.55M95.70 0.26C98.86 0.26 101.03-1.28 101.59-3.63L98.61-3.97C98.18-2.82 97.12-2.22 95.74-2.22C93.68-2.22 92.31-3.58 92.29-5.90L101.72-5.90L101.72-6.88C101.72-11.63 98.87-13.73 95.53-13.73C91.65-13.73 89.12-10.88 89.12-6.70C89.12-2.44 91.61 0.26 95.70 0.26M92.29-8.05C92.39-9.78 93.67-11.24 95.58-11.24C97.41-11.24 98.65-9.90 98.66-8.05"/>
  <path class="cls-1" d="M78.9,86.04h4.2s-4.13,0-4.13,0c-1.97,0-3.56,1.1-3.56,3.06v71.89h11.35c1.6,0,2.9-1.3,2.9-2.9v-59.68l-2.5-5.26c-2-3.61-3.54-7.11-8.27-7.11Z"/>
  <path class="cls-1" d="M132.33,85.54c-1.97,0-3.56,1.59-3.56,3.56v55.49s3.83,8.16,3.83,8.16c2.01,4.14,2.74,8.14,7.38,8.19h.14c1.6,0,2.9-1.29,2.9-2.89v-72.5h-10.69Z"/>
  <path class="cls-4" d="M132.6,152.74l-3.82-8.16-23.74-50.68c-2-3.8-3.83-7.87-8.56-7.87h-13.37s-4.2.01-4.2.01c4.73,0,6.26,3.49,8.27,7.11l2.5,5.26,25.89,54.52c2.02,3.98,3.83,7.87,8.56,7.87l15.96.13s-.06,0-.09,0c-4.65-.05-5.37-4.04-7.38-8.19Z"/>
  <path class="cls-2" d="M147.97,136.11c0-14.95,9.11-24.94,23.75-24.94s23.75,9.99,23.75,24.94-9.11,24.88-23.75,24.88-23.75-10.02-23.75-24.88ZM181.87,136.01c0-8.42-3.46-14.64-10.08-14.64s-10.21,6.22-10.21,14.64,3.46,14.61,10.21,14.61,10.08-6.19,10.08-14.61Z"/>
  <path class="cls-2" d="M199.77,111.79h12.98v8.42h.5c1.76-5.97,6.19-9.11,11.59-9.11,1.35,0,3.02.19,4.21.47v11.88c-1.26-.41-3.8-.72-5.65-.72-5.91,0-10.24,4.08-10.24,10.02v27.3h-13.38v-48.26Z"/>
  <path class="cls-2" d="M260.19,121.84h-9.08v23.37c0,3.71,1.85,4.71,4.52,4.71,1.26,0,2.67-.31,3.33-.44l2.1,9.96c-1.35.44-3.8,1.13-7.26,1.26-9.71.41-16.15-4.27-16.09-13.73v-25.13h-6.6v-10.05h6.6v-11.56h13.38v11.56h9.08v10.05Z"/>
  <path class="cls-2" d="M278.85,160.04h-13.38v-64.34h13.01v24.6h.57c2.2-5.69,7.1-9.14,14.42-9.14,10.05,0,16.71,6.85,16.68,18.16v30.73h-13.38v-28.34c.03-5.94-3.17-9.43-8.61-9.43s-9.27,3.64-9.3,9.86v27.9Z"/>
</svg>
